<svg width="123" height="42" viewBox="0 0 123 42" fill="none" xmlns="http://www.w3.org/2000/svg">
<g clip-path="url(#clip0_236_88)">
<path d="M100.476 22.311C106.608 18.0343 108.499 10.7845 104.699 6.11825C100.9 1.45196 92.8496 1.13616 86.7179 5.4129C80.5862 9.68964 78.6954 16.9394 82.4947 21.6057C86.2939 26.272 94.3445 26.5878 100.476 22.311Z" fill="white" stroke="black" stroke-width="4" stroke-miterlimit="10"/>
<path d="M63.7844 13.8882L69.5879 13.541C69.7203 14.4192 69.9631 15.0728 70.3602 15.5425C71.0002 16.2778 71.8828 16.6454 73.0524 16.6454C73.9129 16.6454 74.597 16.4616 75.0604 16.0736C75.5017 15.7672 75.7665 15.277 75.7665 14.7664C75.7665 14.2763 75.5238 13.8065 75.1045 13.5002C74.6632 13.1325 73.6261 12.7649 71.9932 12.4381C69.3231 11.8867 67.4033 11.1514 66.2779 10.2119C65.1525 9.33371 64.5126 8.04702 64.5568 6.67862C64.5568 5.73913 64.8657 4.79964 65.4394 4.02354C66.1014 3.14531 67.0061 2.45091 68.0874 2.06285C69.2569 1.59311 70.8898 1.34802 72.942 1.34802C75.4576 1.34802 77.3774 1.77692 78.7014 2.65514C80.0254 3.51294 80.8198 4.90176 81.0625 6.80117L75.3252 7.10752C75.1707 6.29057 74.8618 5.69828 74.3543 5.31023C73.8467 4.92218 73.1848 4.73837 72.3242 4.73837C71.618 4.73837 71.0884 4.88133 70.7354 5.14684C70.4044 5.39193 70.1837 5.75956 70.2058 6.16803C70.2058 6.47439 70.3823 6.76032 70.6471 6.94413C70.934 7.18922 71.618 7.41388 72.6993 7.61812C75.3693 8.14914 77.2671 8.68015 78.4366 9.2316C79.6061 9.78304 80.4446 10.457 80.9522 11.2535C81.4818 12.0705 81.7466 13.01 81.7245 13.9699C81.7245 15.1136 81.3714 16.2574 80.6653 17.2173C79.9371 18.2181 78.922 18.9942 77.7305 19.4639C76.4727 19.9745 74.8839 20.24 72.9862 20.24C69.632 20.24 67.3151 19.6477 66.0131 18.4427C64.7112 17.2377 63.9389 15.7264 63.7844 13.8882ZM2.19683 19.9336V1.6748H12.3695C14.2451 1.6748 15.7015 1.81777 16.6945 2.12413C17.6654 2.41006 18.526 3.00235 19.0998 3.79887C19.7397 4.6771 20.0486 5.69828 20.0266 6.76032C20.0928 8.55761 19.0998 10.2732 17.4006 11.1719C16.7387 11.5191 16.0105 11.7641 15.2602 11.8867C15.8119 12.0297 16.3635 12.2747 16.849 12.5607C17.2241 12.8466 17.533 13.1734 17.8199 13.5206C18.1509 13.8678 18.4378 14.2558 18.6805 14.6643L21.6374 19.9541H14.7085L11.4427 14.3375C11.0234 13.6227 10.6704 13.153 10.3394 12.9283C9.89804 12.6424 9.36844 12.4994 8.83885 12.4994H8.30925V19.9132H2.19683V19.9336ZM8.30925 9.06821H10.891C11.4427 9.02736 11.9723 8.94566 12.5019 8.82312C12.8991 8.76185 13.2521 8.55761 13.4949 8.25126C14.0907 7.516 14.0024 6.47439 13.2742 5.84125C12.877 5.53489 12.1047 5.3715 11.0014 5.3715H8.30925V9.06821ZM0.806641 35.5782L6.61013 35.231C6.74253 36.1093 6.98526 36.7628 7.38246 37.2326C8.00032 37.9678 8.90505 38.3559 10.0746 38.3559C10.9352 38.3559 11.6192 38.1721 12.0826 37.784C12.524 37.4572 12.7887 36.9875 12.7887 36.4769C12.7887 35.9867 12.546 35.517 12.1268 35.2106C11.6854 34.843 10.6483 34.4754 8.99331 34.1486C6.32326 33.5971 4.40348 32.8619 3.27809 31.9224C2.1527 31.0442 1.51277 29.7575 1.5569 28.3891C1.5569 27.4496 1.86583 26.5101 2.43956 25.734C3.10156 24.8558 4.00628 24.1614 5.08754 23.7733C6.25707 23.3036 7.88999 23.0585 9.94217 23.0585C12.4578 23.0585 14.3775 23.4874 15.7015 24.3656C17.0255 25.2438 17.7978 26.6122 18.0406 28.5116L12.3033 28.818C12.1488 28.001 11.8399 27.4087 11.3324 27.0207C10.8469 26.6326 10.1628 26.4488 9.30224 26.4693C8.59611 26.4693 8.06652 26.6122 7.71345 26.8981C7.36039 27.1432 7.16179 27.5109 7.18386 27.9193C7.18386 28.2257 7.36039 28.5116 7.62519 28.6954C7.91205 28.9405 8.59611 29.1652 9.67737 29.3694C12.3474 29.9004 14.2451 30.4315 15.4147 30.9829C16.5842 31.5343 17.4227 32.2083 17.9302 33.0049C18.4598 33.8218 18.7246 34.7613 18.7246 35.7008C18.7246 36.8445 18.3495 37.9678 17.6654 38.9277C16.9373 39.9285 15.9222 40.7046 14.7306 41.1744C13.4728 41.685 11.884 41.9505 9.9863 41.9505C6.6322 41.9505 4.31521 41.3582 3.01329 40.1532C1.71137 38.9277 0.983173 37.4164 0.806641 35.5782H0.806641Z" fill="black"/>
<path d="M30.1551 34.1486L35.4952 35.6395C35.2084 36.8854 34.6126 38.0699 33.7961 39.1116C33.0458 40.0306 32.0528 40.7455 30.9275 41.2152C29.78 41.685 28.3236 41.93 26.5583 41.93C24.4178 41.93 22.6525 41.6441 21.3065 41.0722C19.9383 40.5004 18.7688 39.4792 17.7758 38.0291C16.7828 36.579 16.2974 34.7204 16.2974 32.4534C16.2974 29.4307 17.158 27.1024 18.9012 25.4889C20.6445 23.8754 23.0938 23.0585 26.2714 23.0585C28.7649 23.0585 30.7068 23.5282 32.1411 24.4473C33.5534 25.3868 34.6126 26.8164 35.3187 28.7363L29.9345 29.8392C29.8021 29.4103 29.6035 28.9814 29.3387 28.6137C29.0077 28.1848 28.5884 27.8581 28.0809 27.613C27.5733 27.3679 26.9996 27.2658 26.4259 27.2658C25.0357 27.2658 23.9765 27.7764 23.2483 28.818C22.6966 29.5737 22.4098 30.7787 22.4098 32.4126C22.4098 34.4345 22.7408 35.8233 23.4028 36.579C24.0648 37.3347 24.9916 37.7023 26.2052 37.7023C27.3747 37.7023 28.2574 37.396 28.8532 36.8037C29.449 36.1705 29.8903 35.2923 30.1551 34.1486ZM42.6227 23.3648H48.713V29.7575H55.3771V23.3648H61.5116V41.6237H55.3771V34.2303H48.713V41.6237H42.6227V23.3648Z" fill="black"/>
<path d="M60.6731 32.4943C60.6731 29.5124 61.5778 27.1841 63.3652 25.5298C65.1526 23.8755 67.6682 23.0381 70.8678 23.0381C74.1557 23.0381 76.6713 23.855 78.4587 25.4889C80.2461 27.1228 81.1287 29.4103 81.1287 32.3513C81.1287 34.4958 80.7315 36.2318 79.9592 37.6002C79.209 38.9482 78.0394 40.0511 76.6051 40.7863C75.1266 41.542 73.2951 41.9301 71.1105 41.9301C68.8818 41.9301 67.0503 41.6033 65.5939 40.9497C64.0934 40.2553 62.8577 39.1729 62.0412 37.8453C61.1365 36.4157 60.6731 34.6388 60.6731 32.4943ZM66.7634 32.5147C66.7634 34.3529 67.1386 35.6804 67.8668 36.4973C68.595 37.2939 69.61 37.7024 70.8899 37.7024C72.1918 37.7024 73.2069 37.3143 73.9351 36.5178C74.6633 35.7212 75.0163 34.312 75.0163 32.2696C75.0163 30.554 74.6412 29.2878 73.8909 28.5117C73.1407 27.7151 72.1256 27.3271 70.8457 27.3271C69.7204 27.2862 68.6391 27.7356 67.8888 28.5321C67.1386 29.3286 66.7634 30.6561 66.7634 32.5147ZM87.3735 32.4943C87.3735 29.5124 88.2783 27.1841 90.0657 25.5298C91.8531 23.8755 94.3686 23.0381 97.5683 23.0381C100.856 23.0381 103.394 23.855 105.159 25.4889C106.924 27.1228 107.829 29.4103 107.829 32.3513C107.829 34.4958 107.432 36.2318 106.66 37.6002C105.909 38.9482 104.74 40.0511 103.306 40.7863C101.827 41.542 99.9956 41.9301 97.811 41.9301C95.5823 41.9301 93.7508 41.6033 92.2944 40.9497C90.7939 40.2553 89.5581 39.1729 88.7417 37.8453C87.8369 36.4157 87.3735 34.6388 87.3735 32.4943ZM93.4639 32.5147C93.4639 34.3529 93.839 35.6804 94.5672 36.4973C95.2954 37.2939 96.3105 37.7024 97.5903 37.7024C98.8923 37.7024 99.9073 37.3143 100.636 36.5178C101.364 35.7212 101.717 34.312 101.717 32.2696C101.717 30.554 101.342 29.2878 100.591 28.5117C99.8411 27.7151 98.8261 27.3271 97.5462 27.3271C96.4208 27.2862 95.3175 27.7356 94.5893 28.5321C93.839 29.3286 93.4639 30.6561 93.4639 32.5147Z" fill="black"/>
<path d="M107.189 23.3649H113.28V37.1305H122.79V41.6237H107.167V23.3649H107.189Z" fill="black"/>
<path d="M87.3955 12.5198L89.6021 11.0902L92.3163 14.6643C92.7797 15.2362 93.1328 15.8489 93.3976 16.5229C93.552 17.0335 93.5079 17.5849 93.2872 18.0751C93.0004 18.6878 92.537 19.1984 91.9191 19.566C91.1909 20.0358 90.573 20.3013 90.0434 20.383C89.5359 20.4647 89.0063 20.383 88.5209 20.1787C87.9913 19.9336 87.5279 19.5864 87.1748 19.1371L89.0725 17.5032C89.227 17.7279 89.4256 17.9321 89.6463 18.0955C89.8007 18.1976 89.9773 18.2589 90.1758 18.2589C90.3303 18.2589 90.4848 18.1976 90.5951 18.1159C90.8158 17.9934 90.9702 17.7483 90.9482 17.5032C90.882 17.156 90.7275 16.8088 90.4848 16.5433L87.3955 12.5198ZM94.0154 14.7869L96.0235 13.3163C96.2441 13.5614 96.531 13.7452 96.8399 13.8474C97.2813 13.9699 97.7447 13.8882 98.1198 13.6227C98.3846 13.4593 98.6052 13.2347 98.6935 12.9487C98.8259 12.5811 98.6052 12.1726 98.208 12.0501C98.1418 12.0297 98.0757 12.0092 98.0095 12.0092C97.7447 11.9888 97.2813 12.0909 96.5972 12.3564C95.4718 12.7853 94.5891 12.9487 93.9272 12.8874C93.2872 12.8262 92.6914 12.5198 92.3384 12.0092C92.0736 11.662 91.9412 11.2535 91.9191 10.8451C91.9191 10.3753 92.0515 9.90558 92.3384 9.51753C92.7576 8.96608 93.2652 8.49634 93.883 8.12871C94.8098 7.53642 95.6263 7.25049 96.3324 7.25049C97.0385 7.25049 97.7005 7.55684 98.3184 8.18998L96.3324 9.64007C95.9352 9.17032 95.1849 9.0682 94.6774 9.43583L94.6112 9.4971C94.3905 9.61965 94.2361 9.80346 94.1478 10.0281C94.0816 10.1915 94.1257 10.3753 94.2361 10.5183C94.3243 10.6204 94.4567 10.7021 94.6112 10.7021C94.7877 10.7225 95.0967 10.6408 95.538 10.457C96.6413 10.0281 97.4799 9.78304 98.0536 9.70134C98.5391 9.61965 99.0466 9.66049 99.51 9.84431C99.9292 10.0077 100.282 10.2936 100.525 10.6408C100.834 11.0493 101.01 11.5395 101.033 12.0501C101.055 12.5811 100.9 13.0917 100.591 13.541C100.194 14.0925 99.6865 14.5622 99.0907 14.9298C97.8771 15.7059 96.8841 16.0327 96.0897 15.9102C95.2291 15.7876 94.5229 15.3791 94.0154 14.7869Z" fill="black"/>
</g>
<defs>
<clipPath id="clip0_236_88">
<rect width="121.984" height="41.93" fill="white" transform="translate(0.806641)"/>
</clipPath>
</defs>
</svg>
